<svg width="522" height="585" viewBox="0 0 522 585" fill="none" xmlns="http://www.w3.org/2000/svg">
<g filter="url(#filter0_f_71_39)">
<ellipse cx="261" cy="568" rx="186" ry="13" fill="#C4C4C4" fill-opacity="0.18"/>
</g>
<g filter="url(#filter1_i_71_39)">
<circle cx="261" cy="261" r="261" fill="white"/>
</g>
<g clip-path="url(#clip0_71_39)">
<path d="M467.099 162.463C411.659 85.1577 294.546 53.7991 179.369 87.573C118.479 105.428 59.7687 141.204 30.6736 210.477C-21.3371 334.31 87.8659 373.859 159.273 386.464C193.801 392.559 226.321 402.798 256.038 416.737C309.502 441.815 404.136 464.037 475.497 359.575C527.219 283.86 504.027 213.956 467.099 162.463Z" fill="#F2F2F2"/>
<path d="M145.68 177.758C145.524 176.529 145.211 175.326 144.746 174.178C144.687 173.961 144.584 173.759 144.442 173.584C144.301 173.41 144.124 173.266 143.924 173.164C143.657 173.094 143.377 173.091 143.109 173.155L138.921 173.797C138.571 173.813 138.235 173.944 137.966 174.169C137.42 174.744 137.957 175.669 137.941 176.462C137.922 177.354 137.131 178.078 136.274 178.317C135.399 178.494 134.496 178.483 133.625 178.284L127.77 177.372C129.494 176.821 131.029 175.794 132.2 174.41C132.97 173.495 133.38 171.788 132.266 171.354C131.936 171.263 131.59 171.236 131.249 171.273C128.596 171.293 126.509 169.074 124.025 168.139C122.435 167.579 120.71 167.537 119.095 168.02C117.481 168.502 116.06 169.484 115.035 170.824L118.155 170.975C118.448 170.959 118.739 171.036 118.985 171.197C119.669 171.76 118.819 172.841 118.915 173.722C119.041 174.867 120.558 175.112 121.702 175.227C122.845 175.343 124.296 176.274 123.746 177.286C117.998 179.27 112.148 173.407 106.111 174.129C104.583 174.312 103.14 174.913 101.649 175.291C92.5359 177.602 83.1149 171.437 73.8058 172.743C71.7362 173.096 69.7023 173.634 67.7279 174.349C66.4609 174.766 65.1394 175.216 64.2188 176.183C63.2982 177.15 62.9478 178.803 63.8199 179.814C61.4162 180.013 58.9963 179.782 56.6729 179.134C57.3012 179.484 57.8239 179.997 58.1861 180.619C58.5483 181.241 58.7367 181.949 58.7315 182.67C54.9783 183.283 51.3244 184.399 47.8683 185.989C48.5133 187.064 49.2668 188.069 50.1167 188.99L45.3652 192.049C46.9705 192.454 47.8005 194.648 46.8669 196.018C48.5314 195.276 49.563 193.356 51.3429 192.967C52.509 192.712 53.6955 193.19 54.8016 193.639C55.9078 194.088 57.1236 194.524 58.2688 194.187C59.4139 193.85 60.2586 192.362 59.5309 191.414C64.4255 189.983 69.484 189.191 74.581 189.057C74.9743 189.008 75.373 189.084 75.7208 189.274C76.3843 189.735 76.2098 190.732 76.174 191.54C76.1383 192.349 76.7671 193.411 77.4881 193.047C76.6398 193.784 77.365 195.172 78.1789 195.947C78.9927 196.722 79.9737 197.791 79.4754 198.8C79.3453 199.063 79.1248 199.273 78.9997 199.539C78.6303 200.323 79.2167 201.236 79.9084 201.757C80.6001 202.278 81.4473 202.641 81.9278 203.362C82.4083 204.083 82.1901 205.345 81.3309 205.445L78.8889 202.338C78.0545 203.205 77.4825 204.291 77.2392 205.471C79.8288 207.592 80.2183 211.91 78.0504 214.462C76.9425 215.766 75.367 216.559 73.9919 217.576C72.6168 218.593 71.3445 220.042 71.3479 221.755C71.3539 224.714 71.1126 227.463 72.2192 230.206C74.2596 235.265 76.6154 240.19 79.2726 244.953C79.9704 246.203 80.8723 247.574 82.2858 247.789C80.4994 243.431 78.8912 239.005 77.4613 234.512C78.3926 234.515 79.4688 234.589 80.0148 235.345C80.4669 235.971 80.3698 236.823 80.5103 237.583C80.6889 238.319 80.9869 239.021 81.3922 239.66L89.9232 254.888C90.6304 256.15 91.4416 257.505 92.7932 258.016C93.6574 258.343 94.6572 258.282 95.4526 258.752C96.076 259.121 96.4959 259.776 97.1315 260.123C98.9286 261.106 101.428 259.222 103.107 260.394C103.587 260.73 103.893 261.263 104.335 261.647C105.886 262.993 108.431 262.092 110.221 263.096C111.375 263.743 111.973 265.038 112.589 266.21C114.131 269.148 116.626 272.026 119.93 272.26C120.968 272.334 122.028 272.137 123.043 272.368C124.057 272.599 125.056 273.487 124.893 274.516C124.614 276.282 125.484 278.215 125.25 279.987C124.825 283.215 120.255 284.634 119.863 287.866C119.777 288.574 119.912 289.304 119.743 289.997C119.537 290.846 118.901 291.537 118.675 292.381C118.246 293.98 119.39 295.572 120.646 296.648C121.902 297.723 123.4 298.651 124.087 300.157C124.813 301.749 124.456 303.605 124.692 305.339C125.208 309.125 128.471 311.932 131.829 313.741C132.852 314.293 133.951 314.826 134.613 315.783C135.477 317.031 135.391 318.677 135.68 320.169C136.387 323.822 139.456 326.832 139.543 330.552C139.605 333.196 138.138 335.595 137.262 338.09C136.44 340.48 136.143 343.02 136.39 345.536C136.637 348.052 137.423 350.485 138.694 352.669C139.35 353.778 140.134 354.824 140.597 356.026C141.425 358.171 141.156 360.61 141.919 362.78C142.928 365.648 145.699 368.017 145.434 371.046C146.692 373.665 149.471 374.951 152.265 375.731L157.272 377.127C158.231 377.395 159.233 377.664 160.209 377.471C161.185 377.277 162.117 376.465 162.092 375.468C159.636 374.913 157.102 374.323 155.078 372.823C153.054 371.324 151.667 368.654 152.435 366.252C152.791 365.138 153.549 363.852 152.829 362.931C152.416 362.404 151.662 362.267 151.197 361.786C150.471 361.036 150.72 359.776 151.242 358.872C151.764 357.968 152.518 357.159 152.728 356.136C152.834 355.564 152.763 354.973 152.525 354.442C152.286 353.911 151.891 353.466 151.393 353.167C152.321 352.816 153.166 352.273 153.871 351.573C154.523 350.828 154.824 349.678 154.312 348.83C155.834 349.023 157.632 349.118 158.631 347.951C159.429 347.019 159.374 345.626 159.059 344.439C158.744 343.252 158.211 342.1 158.194 340.872C161.706 341.038 165.226 340.919 168.719 340.514C168.214 338.809 167.066 337.369 165.519 336.498C167.101 336.23 168.542 334.332 169.042 332.804C169.542 331.277 169.414 329.612 169.106 328.035C168.987 327.629 168.971 327.199 169.058 326.785C169.236 326.216 169.794 325.869 170.31 325.572L178.162 321.053C178.631 320.818 179.056 320.504 179.418 320.124C180.241 319.156 180.119 317.694 179.697 316.495C179.276 315.295 178.601 314.167 178.439 312.906C177.954 309.134 181.984 306.427 183.344 302.876C183.877 301.483 183.986 299.968 184.089 298.479C184.2 296.88 184.208 295.023 182.983 293.992C181.808 293.004 179.973 293.224 178.744 292.306C177.617 291.463 177.228 289.827 175.997 289.146C174.879 288.528 173.477 288.921 172.234 288.631C170.045 288.119 168.667 285.591 166.431 285.356C165.169 285.224 163.742 285.842 162.708 285.106C161.797 284.457 161.76 283.154 161.587 282.047C161.283 280.328 160.46 278.743 159.23 277.506C158 276.269 156.421 275.44 154.706 275.13C153.405 274.921 151.989 275 150.883 274.284C149.762 273.559 149.248 272.201 148.368 271.196C146.95 269.577 144.716 269.002 142.623 268.509L134.11 266.504C132.599 266.148 130.651 265.959 129.84 267.286C129.6 267.791 129.43 268.326 129.335 268.877C129.031 269.875 128.42 270.75 127.588 271.377C126.757 272.004 125.749 272.35 124.708 272.367C123.995 271.148 122.839 270.251 121.482 269.865C120.619 269.624 119.695 269.598 118.872 269.243C118.423 269.024 118.024 268.715 117.699 268.336C117.374 267.957 117.129 267.515 116.98 267.038C116.832 266.561 116.781 266.058 116.833 265.561C116.885 265.064 117.037 264.582 117.281 264.146C117.771 263.27 117.961 262.257 117.82 261.263C117.679 260.268 117.215 259.348 116.501 258.644C115.053 257.342 112.959 257.027 111.018 257.157C110.509 256.046 111.359 254.792 112.275 253.984C113.191 253.176 114.304 252.382 114.503 251.175C114.817 249.278 112.401 247.837 110.566 248.402C108.732 248.968 107.561 250.754 106.787 252.514C106.343 253.524 105.965 254.587 105.265 255.439C104.564 256.29 103.436 256.9 102.369 256.627C100.858 256.24 100.275 254.442 99.9406 252.916C99.492 250.868 99.0409 248.792 99.1348 246.698C99.2288 244.604 99.9333 242.454 101.474 241.036C103.985 238.726 107.838 238.953 111.227 239.321C110.426 238.417 110.624 236.894 111.48 236.043C111.933 235.64 112.476 235.354 113.064 235.209C113.651 235.065 114.265 235.066 114.852 235.213C115.873 235.426 116.793 235.977 117.464 236.778C118.427 237.954 118.7 239.543 119.428 240.878C120.156 242.214 121.793 243.353 123.133 242.636C124.29 242.017 124.474 240.41 124.186 239.127C123.898 237.845 123.286 236.598 123.39 235.288C123.589 232.788 126.176 231.283 128.458 230.253C130.74 229.224 133.353 227.839 133.715 225.358C133.727 224.872 133.819 224.391 133.985 223.935C134.239 223.532 134.59 223.2 135.007 222.972C141.668 218.561 148.439 214.096 156.052 211.686C156.448 211.561 156.494 211.7 156.898 211.602C157.463 211.275 157.089 210.37 156.547 210.005C156.005 209.64 155.282 209.361 155.144 208.722C155.043 208.252 155.319 207.791 155.391 207.315C155.567 206.148 154.173 205.07 153.091 205.536C152.479 204.725 153.689 203.782 154.668 203.512C157.606 202.702 160.621 202.208 163.664 202.039C164.015 201.983 164.375 202.045 164.688 202.214C165.199 202.568 165.133 203.382 164.771 203.888C164.409 204.395 163.846 204.713 163.394 205.141C162.901 205.622 162.55 206.23 162.378 206.898C162.206 207.566 162.22 208.268 162.42 208.929C164.008 209.738 165.735 210.572 167.494 210.286C169.253 210.001 170.815 208.021 169.988 206.439C169.218 204.966 166.905 204.633 166.507 203.019C166.041 201.129 168.712 199.448 168.11 197.596C167.847 196.785 167.04 196.308 166.421 195.723C165.69 195.005 165.193 194.082 164.995 193.076C164.797 192.07 164.907 191.027 165.311 190.085C164.303 190.263 163.267 190.196 162.29 189.889C161.313 189.583 160.424 189.047 159.697 188.325C158.354 186.967 157.283 184.825 155.376 184.885C153.626 184.941 152.119 186.987 150.483 186.363C150.081 186.209 149.656 185.897 149.266 186.08C149.138 186.163 149.031 186.274 148.953 186.405C148.874 186.536 148.826 186.683 148.812 186.835C148.397 188.827 149.112 191.096 148.028 192.818C146.849 194.691 144.122 194.951 142.693 196.64C141.917 197.557 141.617 198.792 140.903 199.759C140.19 200.725 138.677 201.34 137.821 200.498C138.241 199.631 138.356 198.647 138.147 197.707C137.937 196.766 137.415 195.925 136.667 195.32C135.872 194.801 135.015 194.383 134.117 194.078C133.113 193.652 132.158 193.119 131.269 192.487C130.823 192.218 130.461 191.83 130.223 191.366C130.035 190.785 130.06 190.157 130.295 189.593C130.729 188.346 131.494 187.242 132.509 186.399C133.524 185.557 134.748 185.008 136.052 184.812C137.191 184.656 138.517 184.711 139.272 183.841C139.671 183.381 139.88 182.685 140.459 182.498C140.83 182.423 141.214 182.471 141.556 182.633L145.809 184.133C146.283 184.348 146.806 184.435 147.324 184.384C147.581 184.35 147.815 184.219 147.98 184.018C148.145 183.818 148.228 183.562 148.212 183.303C148.076 182.595 146.99 182.255 147.088 181.541C147.144 181.31 147.268 181.101 147.444 180.942C148.979 179.305 150.857 178.028 152.942 177.203C155.027 176.378 157.268 176.025 159.505 176.169C160.042 177.053 159.193 178.099 158.486 178.853C157.78 179.607 157.212 180.955 158.066 181.536C158.417 181.715 158.806 181.802 159.199 181.791C160.246 181.933 161.264 182.242 162.213 182.707C163.683 183.348 165.124 184.049 166.538 184.811C166.413 183.877 166.294 182.894 166.647 182.02C167 181.147 168.004 180.462 168.881 180.802C169.726 181.13 170.159 182.251 171.06 182.354C172.261 182.491 172.734 180.713 172.233 179.611C171.731 178.509 170.738 177.587 170.655 176.378C170.599 175.563 170.909 174.552 170.259 174.059C170.028 173.91 169.765 173.818 169.492 173.789L153.267 170.797C152.303 170.62 150.911 170.756 150.869 171.736C150.845 172.284 151.333 172.826 151.117 173.329C150.886 173.866 150.128 173.817 149.576 174.007C148.72 174.302 148.29 175.321 148.372 176.225C148.523 177.123 148.87 177.976 149.388 178.724C148.333 178.281 146.735 178.2 145.68 177.758Z" fill="#3F3D56"/>
<path d="M132.733 163.956C131.71 163.617 130.608 163.601 129.575 163.911C128.543 164.221 127.63 164.841 126.962 165.688C126.695 166.041 126.47 166.526 126.694 166.908C127.015 167.455 127.832 167.239 128.434 167.044C129.319 166.727 130.283 166.703 131.183 166.978C131.748 167.172 132.254 167.516 132.822 167.704C133.099 167.82 133.402 167.858 133.698 167.814C133.995 167.771 134.274 167.647 134.506 167.457C134.896 167.059 134.92 166.439 134.921 165.881C134.948 165.694 134.933 165.504 134.877 165.324C134.822 165.143 134.726 164.978 134.599 164.839C134.371 164.707 134.116 164.632 133.853 164.618C133.266 164.509 132.734 164.198 132.351 163.739" fill="#3F3D56"/>
<path d="M138.584 162.324C138.355 162.311 138.127 162.358 137.921 162.459C137.715 162.561 137.539 162.714 137.409 162.903C137.279 163.093 137.2 163.312 137.18 163.541C137.159 163.77 137.198 164 137.292 164.21C137.995 164.402 138.73 164.45 139.452 164.351C139.812 164.295 140.148 164.134 140.416 163.887C140.685 163.64 140.875 163.319 140.962 162.964C140.112 163.119 139.234 162.951 138.501 162.493" fill="#3F3D56"/>
<path d="M158.213 159.598C156.299 160.005 154.44 160.638 152.674 161.483C153.507 161.804 154.214 162.384 154.693 163.138C155.171 163.892 155.396 164.78 155.332 165.672C155.258 166.014 155.266 166.369 155.357 166.707C155.561 167.201 156.15 167.387 156.669 167.514C157.6 167.798 158.572 167.922 159.544 167.881C160.031 167.856 160.503 167.709 160.919 167.455C161.334 167.2 161.68 166.846 161.925 166.424C162.066 166.023 162.231 165.632 162.42 165.251C163.662 163.356 167.352 165.648 168.686 163.816C169.156 163.17 169.113 162.199 169.725 161.687C170.042 161.464 170.409 161.324 170.793 161.278C173.475 160.745 176.185 160.358 178.909 160.12C180.2 160.008 181.882 159.543 181.893 158.245C177.031 157.288 171.99 157.968 167.553 160.178C165.955 160.98 163.841 162.668 162.301 161.604C161.724 161.206 161.753 160.134 160.959 159.686C160.148 159.228 159.074 159.414 158.213 159.598Z" fill="#3F3D56"/>
<path d="M174.113 162.577L176.395 163.016C175.975 162.998 175.556 163.069 175.165 163.226C174.775 163.382 174.422 163.621 174.131 163.924C173.84 164.228 173.617 164.591 173.476 164.988C173.336 165.386 173.282 165.808 173.317 166.228C175.455 166.943 177.785 166.247 180.036 166.342C182.287 166.437 184.907 168.049 184.522 170.274C184.406 170.947 184.018 171.619 184.22 172.271C184.361 172.728 184.764 173.052 184.991 173.473C185.464 174.351 185.086 175.46 184.488 176.258C183.891 177.055 183.088 177.691 182.563 178.539C181.259 180.646 182 183.371 182.777 185.726C183.002 186.616 183.417 187.446 183.993 188.159C185.144 189.385 187.02 189.492 188.7 189.517C189.923 189.535 191.323 189.474 192.097 188.525C193.106 187.285 192.4 185.351 193.065 183.897C193.669 182.576 195.207 182.009 196.6 181.607C199.153 180.871 201.754 180.244 204.168 179.132C207.165 177.751 209.965 175.598 213.259 175.42C214.183 175.371 215.13 175.48 216.02 175.226C216.91 174.972 217.756 174.201 217.689 173.276C217.631 172.486 216.964 171.906 216.442 171.31C215.921 170.715 215.512 169.798 215.991 169.168L224.624 167.552C224.012 165.881 223.536 163.68 224.942 162.592C225.449 162.2 226.129 162.043 226.561 161.568C227.297 160.759 226.927 159.366 226.077 158.678C225.227 157.991 224.078 157.831 222.989 157.74C219.203 157.425 215.396 157.634 211.603 157.842C204.188 158.249 196.774 158.656 189.36 159.064C187.867 159.146 186.144 159.02 184.775 159.531C183.616 159.963 182.792 160.756 181.466 161.034C179.02 161.549 176.327 161.2 174.113 162.577Z" fill="#3F3D56"/>
<path d="M214.998 180.654C214.766 180.617 214.528 180.671 214.334 180.805C214.206 180.946 214.129 181.127 214.118 181.318C213.97 182.16 214.146 183.026 214.609 183.744C214.845 184.096 215.171 184.379 215.552 184.562C215.934 184.745 216.358 184.823 216.779 184.787C217.807 184.656 218.564 183.777 219.509 183.348C220.965 182.688 227.149 181.659 222.871 179.343C221.397 178.545 220.445 179.25 219.283 179.775C217.961 180.453 216.479 180.757 214.998 180.654V180.654Z" fill="#3F3D56"/>
<path d="M252.465 161.27C251.965 161.474 251.547 161.839 251.276 162.306C251.152 162.544 251.123 162.82 251.195 163.078C251.268 163.336 251.437 163.557 251.668 163.694C251.854 163.761 252.052 163.793 252.25 163.786L254.281 163.847C255.144 163.873 256.222 164.057 256.454 164.89C256.626 165.509 256.241 166.304 256.706 166.746C256.905 166.901 257.145 166.994 257.396 167.016C258.065 167.188 258.764 167.211 259.443 167.082C260.92 166.685 260.144 165.781 260.609 164.976C261.322 163.745 261.198 164.49 262.453 163.785C263.38 163.264 264.577 162.318 263.804 160.99C262.459 158.68 254.449 160.277 252.465 161.27Z" fill="#3F3D56"/>
<path d="M292.551 160.108L291.371 160.266C288.712 160.622 286.037 160.981 283.476 161.781C284.585 162.22 285.748 162.506 286.934 162.631C287.586 162.663 288.235 162.755 288.871 162.907C290.002 163.244 291.142 164.116 292.235 163.67C292.913 163.393 293.134 162.686 293.695 162.311C294.083 162.052 295.553 161.633 295.717 161.372C297.046 159.261 293.572 159.972 292.551 160.108Z" fill="#3F3D56"/>
<path d="M297.729 165.479C296.154 166.362 294.692 167.435 293.377 168.673C292.823 169.195 292.257 169.844 292.307 170.605C292.374 171.615 293.448 172.201 294.379 172.596L298.149 174.196C298.607 173.55 298.188 172.658 297.715 172.023C297.243 171.389 296.681 170.654 296.89 169.89C297.128 169.019 298.189 168.722 299.078 168.571C300.527 168.327 304.437 168.346 303.967 166.006C303.413 163.248 299.184 164.665 297.729 165.479Z" fill="#3F3D56"/>
<path d="M296.971 321.533C296.612 322.574 296.578 323.801 297.199 324.71C297.895 325.73 299.29 326.11 300.496 325.851C301.697 325.531 302.768 324.841 303.557 323.879C304.279 323.073 304.873 322.161 305.318 321.174C305.939 319.635 306.377 318.029 306.623 316.389L307.793 310.23C308.055 308.854 308.045 304.634 305.52 306.009C304.83 306.384 303.234 309.35 302.511 310.191C301.208 311.706 301.036 313.177 300.35 315.013C299.491 317.313 297.765 319.229 296.971 321.533Z" fill="#3F3D56"/>
<path d="M430.308 353.048C429.482 352.725 428.68 352.343 427.909 351.904C427.136 354.034 426.725 356.279 426.693 358.545L432.346 355.34C433.196 354.858 434.16 354.188 434.141 353.209C434.149 353.088 434.124 352.967 434.069 352.859C434.014 352.752 433.931 352.661 433.829 352.596C433.703 352.545 433.566 352.529 433.433 352.549C432.594 352.619 431.83 353.033 431.039 353.32C430.249 353.607 429.324 353.759 428.599 353.333" fill="#3F3D56"/>
<path d="M460.126 354.951C459.506 355.12 458.9 355.338 458.314 355.603C457.016 356.264 456.134 357.52 454.967 358.391C453.85 359.225 452.505 359.683 451.185 360.128C450.797 360.472 450.975 361.164 451.397 361.466C451.85 361.725 452.37 361.842 452.889 361.803C454.261 361.833 455.706 361.846 456.907 361.183C457.584 360.743 458.217 360.239 458.798 359.678C460.203 358.504 461.889 357.729 463.559 356.98C464.167 356.751 464.729 356.414 465.218 355.986C466.267 354.951 466.341 353.353 464.828 353C463.606 352.715 461.29 354.574 460.126 354.951Z" fill="#3F3D56"/>
<path d="M473.301 346.327C473.369 345.614 473.275 344.896 473.025 344.225C472.775 343.554 472.376 342.949 471.859 342.455C471.843 343.881 471.8 345.4 471 346.58C470.429 347.42 469.535 347.987 468.911 348.787C468.286 349.588 468.009 350.856 468.741 351.558C469.21 351.916 469.78 352.112 470.369 352.12C471.828 352.292 473.516 352.388 474.539 351.332C475.097 350.756 475.369 349.902 476.05 349.478C476.304 349.371 476.53 349.209 476.713 349.003C476.994 348.555 476.548 347.964 476.045 347.803C475.542 347.642 474.987 347.717 474.482 347.564C473.976 347.411 473.513 346.841 473.772 346.38" fill="#3F3D56"/>
<path d="M449.885 294.048C449.12 294.234 448.327 294.281 447.546 294.186C446.247 293.947 445.236 292.966 444.188 292.162C441.695 290.26 438.666 289.199 435.534 289.132C432.685 289.078 429.809 289.851 427.011 289.312C427.194 290.331 428.064 291.095 428.992 291.549C429.921 292.003 430.945 292.232 431.878 292.677C433.372 293.397 434.557 294.632 435.216 296.156C435.516 296.859 435.705 297.623 436.16 298.237C437.09 299.491 438.853 299.767 440.409 299.664C442.438 299.53 444.557 298.946 446.444 299.703C447.888 300.282 448.922 301.549 450.127 302.533C451.333 303.518 453.031 304.249 454.415 303.538C452.977 303.072 451.726 302.157 450.843 300.928C449.961 299.698 449.494 298.218 449.51 296.704C450.868 296.829 454.779 296.78 454.568 294.469C454.389 292.509 451.051 293.836 449.885 294.048Z" fill="#3F3D56"/>
<path d="M432.124 309.988C432.365 308.663 433.684 307.493 433.273 306.211C432.989 305.324 431.963 304.886 431.034 304.864C430.104 304.842 429.192 305.12 428.263 305.146C427.658 305.113 427.052 305.122 426.448 305.171C424.604 305.475 423.467 307.412 421.729 308.101C420.672 308.52 419.485 308.44 418.386 308.729C415.891 309.386 414.312 311.749 412.568 313.654C409.75 316.718 406.079 318.863 402.03 319.812C400.611 320.141 399.086 320.352 397.959 321.275C396.466 322.498 396.098 324.594 395.766 326.497C394.848 331.753 393.445 336.913 391.576 341.91L397.5 342.668C398.626 342.812 399.794 342.953 400.879 342.619C401.667 342.321 402.414 341.922 403.101 341.433C405.74 339.791 408.693 338.723 411.769 338.297C413.321 338.084 414.947 338.045 416.403 338.623C417.859 339.201 419.108 340.511 419.23 342.075C419.86 341.879 420.531 341.858 421.171 342.014C421.812 342.17 422.398 342.498 422.868 342.962C423.795 343.909 424.403 345.124 424.604 346.436C424.76 347.248 424.916 348.221 425.668 348.562C426.282 348.84 426.986 348.54 427.657 348.487C429.935 348.304 431.825 350.965 434.064 350.507C436.465 350.016 437.054 346.412 439.396 345.691C440.742 345.276 442.629 345.78 443.273 344.526C443.841 343.421 442.708 342.145 442.825 340.908C442.969 339.384 444.762 338.737 446.145 338.087C450.913 335.845 453.175 329.415 450.865 324.673C449.496 321.863 446.803 319.652 446.305 316.565C445.923 314.19 446.857 311.421 445.346 309.551C444.577 308.6 443.276 308.076 442.818 306.941C442.531 306.227 442.646 305.416 442.491 304.662C442.336 303.907 441.679 303.118 440.936 303.314C438.778 303.881 438.089 310.562 436.933 312.186C435.177 314.653 431.571 313.028 432.124 309.988Z" fill="#3F3D56"/>
<path d="M392.231 296.572C391.493 296.365 390.688 296.161 389.981 296.457C389.275 296.753 388.862 297.793 389.429 298.309C393.866 298.135 398.331 297.963 402.73 298.567C407.799 299.263 412.816 300.986 417.907 300.479C414.999 299.619 412.043 298.932 409.054 298.421L404.07 297.466C402.733 297.186 401.382 296.977 400.022 296.84C397.179 296.604 395.027 297.357 392.231 296.572Z" fill="#3F3D56"/>
<path d="M396.673 281.086C396.305 281.055 395.849 281.029 395.658 281.346C395.476 281.649 395.684 282.05 395.587 282.39C395.453 282.854 394.846 282.973 394.367 282.91C393.889 282.847 393.372 282.695 392.948 282.926C392.733 283.073 392.571 283.286 392.488 283.533C392.404 283.78 392.402 284.048 392.483 284.296C392.656 284.788 392.936 285.236 393.303 285.606C393.93 286.398 394.644 287.115 395.432 287.746C396.957 288.874 399.023 289.417 399.984 291.055C400.119 291.372 400.327 291.653 400.591 291.875C401.053 292.168 401.654 291.945 402.15 291.718L403.891 290.921C404.204 290.808 404.484 290.617 404.704 290.366C405.102 289.826 404.858 289.057 404.524 288.475C404.19 287.892 403.763 287.29 403.835 286.622C403.962 285.432 405.49 284.976 406.118 283.958C406.751 282.931 406.339 281.608 406.412 280.403C406.497 278.994 407.381 277.162 405.959 276.109C404.751 275.214 403.597 276.041 402.729 277.029C400.9 279.112 400.036 281.367 396.673 281.086Z" fill="#3F3D56"/>
<path d="M407.237 260.035C407.831 261.175 409.07 261.855 409.717 262.966C410.42 264.169 410.34 265.724 411.102 266.89C411.883 268.087 413.456 268.722 413.894 270.083C414.373 271.569 413.287 273.375 414.153 274.673C414.314 274.885 414.518 275.062 414.751 275.191C414.984 275.32 415.241 275.4 415.506 275.424C415.771 275.448 416.039 275.417 416.291 275.333C416.544 275.248 416.776 275.112 416.973 274.933C417.338 274.535 417.534 274.01 417.518 273.469C417.502 272.929 417.276 272.416 416.888 272.04C416.376 271.572 415.64 271.37 415.212 270.823C414.989 270.507 414.841 270.145 414.778 269.764C414.544 268.663 414.582 267.523 414.887 266.44C415.001 266.165 415.03 265.862 414.97 265.571C414.777 265.01 414.019 264.97 413.487 264.71C412.278 264.118 412.308 262.409 412.519 261.078C412.378 261.964 409.229 260.457 408.899 259.955C408.244 258.958 408.6 257.035 408.47 255.933C407.056 256.616 406.51 258.641 407.237 260.035Z" fill="#3F3D56"/>
<path d="M375.505 277.574C374.923 276.922 374.048 276.24 373.268 276.633C372.673 276.933 372.51 277.758 372.743 278.383C373.027 278.99 373.464 279.512 374.011 279.898C375.635 281.24 377.385 282.452 378.802 284.012C381.337 286.805 382.681 290.573 385.439 293.145C385.993 293.742 386.727 294.14 387.528 294.279C388.332 294.354 389.234 293.838 389.326 293.035C389.403 292.373 388.942 291.781 388.492 291.291C387.421 290.123 386.248 289.048 385.237 287.828C384.77 287.359 384.476 286.745 384.405 286.086C384.4 285.43 384.997 284.742 385.633 284.905C384.86 284.707 384.287 283.417 383.153 283.175C382.206 282.972 381.977 283.56 380.849 283.075C378.698 282.151 377.011 279.264 375.505 277.574Z" fill="#3F3D56"/>
<path d="M426.041 214.073C425.424 213.889 424.817 213.672 424.224 213.423C422.627 212.942 420.514 214.119 420.727 215.776C420.868 216.877 421.891 217.619 422.456 218.574C423.293 219.99 423.07 221.786 422.63 223.372C422.522 223.864 422.316 224.328 422.026 224.738C421.619 225.171 421.133 225.521 420.595 225.769C418.438 226.981 416.536 228.6 414.994 230.537C414.827 230.716 414.71 230.936 414.656 231.176C414.58 231.735 415.141 232.143 415.459 232.609C416.163 233.646 415.654 235.041 415.724 236.293C415.713 236.47 415.747 236.647 415.824 236.807C415.901 236.967 416.017 237.104 416.162 237.207C416.586 237.423 417.09 237.056 417.32 236.638C418.084 235.25 417.509 233.024 418.942 232.355C419.213 232.228 419.542 232.175 419.723 231.936C420.01 231.558 419.733 230.997 419.878 230.544C420.097 229.865 421.024 229.834 421.736 229.865C422.962 229.916 424.188 229.752 425.358 229.381C425.817 229.272 426.234 229.03 426.557 228.686C426.985 228.15 426.947 227.388 426.862 226.707C426.433 223.31 425.359 220.027 423.698 217.035C424.958 217.196 426.327 217.335 427.414 216.678C428.023 216.31 428.752 215.208 428.45 214.459C427.973 213.274 427.111 214.271 426.041 214.073Z" fill="#3F3D56"/>
<path d="M264.612 232.754C264.763 233.564 264.911 234.417 264.646 235.197C264.382 235.977 263.548 236.629 262.762 236.39C262.151 236.204 261.798 235.589 261.365 235.12C258.953 232.511 253.513 234.022 252.024 230.794C251.416 229.477 251.829 227.9 251.414 226.509C251.153 225.706 250.632 225.012 249.935 224.537C249.237 224.062 248.401 223.833 247.56 223.885C246.792 223.996 246.044 224.22 245.341 224.549C240.632 226.439 235.688 227.678 230.645 228.232C229.686 228.291 228.738 228.463 227.821 228.747C225.75 229.499 224.335 231.423 223.329 233.386C222.322 235.349 221.578 237.474 220.228 239.218C218.81 241.051 216.822 242.334 214.967 243.722C214.253 244.184 213.658 244.809 213.232 245.545C212.83 246.372 212.852 247.334 212.884 248.254L213.263 259.421C213.311 260.857 213.373 262.345 214.014 263.63C214.815 265.235 216.398 266.287 217.496 267.705C218.616 269.162 219.2 270.962 219.148 272.801C219.124 273.54 219.051 274.414 219.626 274.879C219.975 275.106 220.384 275.224 220.801 275.217L235.875 276.454C238.527 276.671 241.466 277.029 243.197 279.053C244.014 280.009 244.67 281.383 245.922 281.485C246.459 281.529 246.981 281.308 247.518 281.266C248.873 281.158 250.063 282.188 250.814 283.323C251.95 285.053 252.466 287.118 252.277 289.181C252.154 290.475 251.753 291.734 251.667 293.031C251.338 297.968 255.515 302.258 255.596 307.205C255.644 310.115 254.265 312.834 252.921 315.414C255.09 318.707 253.314 323.092 254.177 326.942C254.997 330.594 258.036 333.453 258.793 337.119C259.14 338.797 259.16 340.863 260.637 341.727C261.285 342.043 262.003 342.187 262.723 342.145C267.063 342.197 271.355 341.218 275.245 339.289C277.071 338.381 278.964 337.025 279.283 335.007C279.54 333.38 278.717 331.56 279.555 330.143C280.542 328.473 283.072 328.605 284.525 327.321C286.883 325.237 285.045 321.264 286 318.263C286.858 315.566 289.814 314.133 291.279 311.712C291.855 310.671 292.269 309.547 292.506 308.38C293.177 305.591 293.595 302.747 293.754 299.883C293.793 298.142 293.921 296.405 294.137 294.678C295.717 284.845 305.418 278.26 308.568 268.813C308.869 267.911 309.01 266.71 308.209 266.199C307.734 265.972 307.195 265.916 306.684 266.039L299.735 266.917C298.872 267.026 297.957 267.128 297.164 266.769C296.371 266.41 295.803 265.405 296.224 264.642C297.404 262.499 294.976 259.792 293.898 257.597C290.993 251.685 287.534 246.064 283.567 240.808C283.313 240.538 283.154 240.192 283.114 239.823L285.086 239.889C284.42 237.495 283.322 234.875 281.001 234C279.693 233.506 278.245 233.677 276.849 233.753C272.853 233.972 268.568 233.367 264.612 232.754Z" fill="#3F3D56"/>
<path d="M276.853 178.809C277.899 179.922 279.07 181.102 280.584 181.296C283.256 181.639 285.178 178.869 286.401 176.463C286.447 177.077 286.729 177.648 287.188 178.056C287.647 178.464 288.247 178.676 288.86 178.648C289.52 178.537 290.15 178.29 290.71 177.923C296.005 175.024 301.937 173.487 307.971 173.452C307.913 172.994 308.027 172.531 308.289 172.151C308.552 171.772 308.946 171.504 309.395 171.398C310.622 171.155 311.727 172.218 312.319 173.322C312.911 174.426 313.28 175.706 314.22 176.532C315.16 177.359 316.981 177.323 317.352 176.126C317.709 174.977 316.514 173.997 315.522 173.32C314.529 172.642 313.483 171.388 314.152 170.389C319.222 169.264 324.324 168.135 329.512 167.912C330.395 167.942 331.275 167.79 332.097 167.465C332.889 167.076 333.518 166.193 333.305 165.336C332.173 165.603 330.987 165.525 329.899 165.114C328.81 164.703 327.869 163.976 327.195 163.027C334.394 162.431 342.051 161.924 348.431 165.318C349.196 166.965 345.294 168.335 346.338 169.821C346.671 170.295 347.338 170.35 347.916 170.361C352.35 170.443 356.809 170.524 361.193 169.854C362.794 169.608 364.413 169.262 366.021 169.461C368.7 169.792 370.991 171.583 373.626 172.167C374.699 172.405 375.902 172.413 376.806 171.788C377.71 171.163 378.099 169.739 377.358 168.926C379.839 166.489 383.957 167.093 387.231 168.26C390.505 169.427 393.606 171.308 397.07 171.568C399.555 171.755 402.074 171.085 404.529 171.511C406.072 171.778 407.508 172.466 409.015 172.889C411.867 173.688 414.884 173.519 417.845 173.558C425.399 173.66 432.872 175.147 439.891 177.947C440.805 178.245 441.641 178.741 442.342 179.398C442.995 180.099 443.329 181.188 442.89 182.041L435.636 180.979C436.319 182.327 438.087 182.557 439.523 183.022C440.959 183.487 442.448 185.076 441.585 186.316C440.029 185.82 438.619 187.378 437.833 188.813C437.048 190.247 436.09 191.964 434.459 192.052C432.999 192.13 431.234 190.884 430.282 191.996C431.597 193.658 432.723 195.462 433.639 197.374C434.579 199.337 435.249 201.81 433.978 203.576C433.778 203.891 433.475 204.126 433.12 204.242C432.082 204.505 431.408 203.233 430.664 202.462C429.726 201.49 428.308 201.215 427.038 200.759C425.767 200.304 424.43 199.407 424.33 198.059C424.268 197.22 424.71 196.44 425.036 195.665C425.583 194.359 425.822 192.943 425.735 191.529C425.664 190.391 425.345 189.207 424.53 188.412C423.714 187.617 422.307 187.365 421.431 188.093C421.023 188.433 420.695 188.976 420.165 188.997C419.227 189.033 418.508 187.395 417.754 187.954C417.842 188.55 417.719 189.157 417.405 189.671C415.155 191.632 411.698 190.803 408.797 191.496C407.417 191.891 406.097 192.469 404.869 193.214C404.41 193.411 404.02 193.74 403.747 194.159C403.385 194.864 403.784 195.767 404.422 196.236C405.099 196.652 405.86 196.912 406.649 196.997C410.186 197.669 413.774 198.708 416.567 200.984C419.359 203.261 421.19 207.024 420.307 210.52L413.332 203.842C413.597 206.646 413.747 209.458 413.783 212.278C413.828 212.828 413.752 213.382 413.562 213.9C413.065 215.001 411.717 215.371 410.536 215.614C410.207 215.676 409.896 215.808 409.622 216C409.348 216.191 409.117 216.439 408.945 216.726C408.773 217.014 408.664 217.334 408.625 217.667C408.585 218 408.617 218.337 408.716 218.657C409.136 220.027 410.182 221.096 411.14 222.16C412.098 223.225 413.041 224.435 413.166 225.863C413.292 227.291 412.216 228.9 410.789 228.801C409.707 228.726 408.905 227.755 408.443 226.772C407.982 225.789 407.707 224.693 407.014 223.858C404.916 221.328 400.202 222.412 398.322 219.716C397.843 220.261 397.51 220.919 397.357 221.629C397.203 222.338 397.232 223.075 397.443 223.77C398.317 223.222 399.515 223.731 400.172 224.528C400.829 225.326 401.139 226.348 401.655 227.243C402.351 228.451 403.459 229.522 403.557 230.914C403.531 231.44 403.54 231.968 403.583 232.493C403.756 233.336 404.467 233.942 404.96 234.647C406.108 236.287 406.051 238.54 405.312 240.401C404.572 242.262 403.243 243.817 401.927 245.325C399.628 247.958 397.282 250.576 394.556 252.763C393.779 253.387 392.949 254 392.464 254.873C391.98 255.745 391.955 256.97 392.7 257.633C392.167 257.66 391.212 257.922 390.679 257.949C390.492 255.808 390.451 253.657 390.557 251.511C388.456 250.499 386.193 253.208 386.464 255.528C386.735 257.848 388.41 259.71 389.602 261.718C390.474 263.186 391.123 264.898 390.831 266.581C390.54 268.265 389.041 269.817 387.342 269.669C384.641 269.433 383.511 265.546 380.835 265.102C380.599 265.046 380.352 265.071 380.131 265.172C379.734 265.39 379.665 265.923 379.643 266.376C379.533 268.601 379.439 270.915 380.305 272.967C381.574 275.968 384.85 278.489 384.163 281.675C380.46 279.95 378.535 275.79 377.662 271.794C376.788 267.797 376.642 263.602 375.075 259.824C373.886 261.352 371.385 260.089 370.298 258.486C369.268 256.967 368.633 255.209 367.634 253.669C366.634 252.129 365.102 250.75 363.271 250.665C361.351 250.576 359.685 251.897 358.221 253.144C357.017 254.17 355.78 255.236 355.076 256.655C354.052 258.718 354.32 261.151 354.27 263.456C354.217 265.947 353.69 268.575 351.996 270.399C350.301 272.223 347.174 272.858 345.305 271.215C344.329 270.356 343.856 269.074 343.436 267.844C341.407 261.911 339.718 255.868 338.376 249.743C338.062 251.141 336.837 252.943 335.666 252.119C335.404 251.898 335.191 251.623 335.042 251.314C332.859 247.606 328.817 245.382 324.732 244.049C320.648 242.716 316.35 242.094 312.311 240.628C310.047 239.807 307.885 238.727 305.867 237.412C305.353 238.169 305.053 239.052 304.998 239.966C304.944 240.881 305.137 241.793 305.558 242.606C306.454 244.196 308.481 245.116 310.217 244.56C311.114 244.273 311.871 243.649 312.761 243.341C313.651 243.033 314.846 243.184 315.235 244.043C315.607 244.866 315.044 245.861 315.323 246.719C315.749 248.027 317.717 248.128 318.405 249.318C318.918 250.203 318.496 251.379 317.765 252.094C317.034 252.808 316.058 253.2 315.166 253.697C312.269 255.311 310.21 258.066 307.679 260.209C305.148 262.353 301.577 263.918 298.56 262.543C299.279 258.894 294.942 256.216 294.145 252.584C293.882 251.388 294.018 250.119 293.643 248.954C293.1 247.267 291.607 246.107 290.382 244.829C288.896 243.262 287.739 241.412 286.978 239.39C286.217 237.367 285.868 235.212 285.951 233.052C286.017 231.551 286.293 230.026 285.951 228.563C285.61 227.099 284.401 225.683 282.903 225.75C279.482 225.901 275.172 226.156 273.377 223.234C272.737 222.191 272.458 220.663 273.384 219.864C274.037 219.3 275.002 219.353 275.86 219.438L283.568 220.198C285.371 220.375 287.32 220.522 288.867 219.578C290.415 218.633 291.085 216.126 289.652 215.015C288.606 214.203 286.73 214.247 286.426 212.956C286.173 211.881 287.36 210.661 286.719 209.763C286.259 209.118 285.225 209.297 284.598 209.78C283.972 210.263 283.517 210.969 282.816 211.335C281.586 211.976 280.116 211.366 278.793 210.951C277.47 210.536 275.695 210.501 275.054 211.732C274.336 213.11 275.69 214.915 274.978 216.295C274.036 218.12 270.846 217.081 269.523 218.651C268.005 220.452 270.556 223.138 270.044 225.439C269.391 225.763 268.664 225.912 267.936 225.871C267.208 225.83 266.503 225.601 265.89 225.205C265.287 224.794 264.806 224.227 264.499 223.564C264.192 222.901 264.07 222.167 264.146 221.44C264.273 220.405 264.811 219.348 264.45 218.37C264.159 217.579 263.366 217.108 262.63 216.701L255.139 212.553C254.443 213.845 255.322 215.448 256.422 216.419C257.522 217.39 258.899 218.122 259.621 219.4C260.078 220.285 260.181 221.312 259.908 222.27C259.635 223.229 259.007 224.047 258.152 224.557C258.045 224.631 257.923 224.681 257.795 224.703C257.667 224.726 257.536 224.72 257.41 224.687C257.29 224.616 257.186 224.523 257.103 224.411C257.021 224.3 256.961 224.173 256.928 224.038C255.607 220.649 253.622 217.307 250.45 215.536C247.277 213.766 242.718 214.13 240.638 217.112C240.144 217.821 239.812 218.628 239.382 219.377C237.095 223.356 232.192 225.241 227.611 225.118C227.163 225.142 226.717 225.037 226.327 224.815C225.586 224.303 225.62 223.216 225.733 222.321L226.214 218.526C226.31 217.763 226.45 216.921 227.052 216.445C227.901 215.774 229.125 216.198 230.206 216.182C231.025 216.144 231.812 215.854 232.461 215.352C233.11 214.85 233.589 214.161 233.833 213.377C234.052 212.585 234.05 211.749 233.829 210.958C233.608 210.167 233.176 209.451 232.579 208.888C232.084 208.422 231.419 207.836 231.681 207.208C231.785 207.034 231.926 206.885 232.094 206.772C232.262 206.659 232.453 206.584 232.653 206.552C234.594 205.987 236.645 205.839 238.554 205.173C240.463 204.506 242.314 203.142 242.766 201.168C242.905 200.563 242.968 199.83 243.51 199.53C243.783 199.415 244.075 199.355 244.37 199.354C245.405 199.207 246.347 198.676 247.012 197.867C247.676 197.058 248.014 196.03 247.959 194.984C248.874 194.343 250.155 194.814 251.04 195.496C251.925 196.177 252.707 197.077 253.784 197.371C255.79 197.918 257.73 196.137 259.81 196.129C260.684 196.126 261.59 196.436 262.413 196.139C263.247 195.837 263.745 195.005 264.385 194.39C265.025 193.776 266.149 193.401 266.74 194.063L266.237 190.327C267.25 190.583 268.307 190.619 269.336 190.433C270.365 190.247 271.342 189.842 272.202 189.246L265.696 187.043C265.47 186.986 265.261 186.874 265.088 186.717C264.615 186.206 265.085 185.411 265.469 184.831C266.389 183.443 266.544 181.157 265.031 180.466C263.998 179.994 262.812 180.56 261.821 181.114L257.072 183.767C256.921 184.672 258.025 185.184 258.709 185.794C259.123 186.162 259.416 186.648 259.549 187.186C259.683 187.725 259.651 188.291 259.457 188.811C259.264 189.331 258.918 189.78 258.465 190.099C258.012 190.418 257.473 190.592 256.92 190.599C257.232 191.007 257.449 191.479 257.555 191.982C257.661 192.485 257.652 193.005 257.53 193.505L254.335 193.735C253.977 193.807 253.604 193.734 253.299 193.532C252.957 193.228 253.004 192.695 252.924 192.244C252.733 191.155 251.669 190.392 250.584 190.197C249.498 190.001 248.387 190.252 247.312 190.5C246.856 190.664 246.355 190.653 245.906 190.467C245.649 190.3 245.454 190.052 245.35 189.763C244.879 188.618 245.319 187.272 246.076 186.293C246.833 185.314 247.869 184.598 248.8 183.782C251.026 181.826 252.661 179.284 253.521 176.445C255.28 175.707 257.101 174.703 258.859 173.965C261.571 172.589 264.612 171.999 267.64 172.26L273.597 172.374C275.36 172.408 277.171 172.451 278.802 173.125C280.433 173.798 281.866 175.256 281.978 177.02C282.012 177.219 281.995 177.424 281.928 177.615C281.861 177.807 281.747 177.978 281.596 178.113C281.366 178.238 281.105 178.297 280.843 178.283C279.199 178.341 278.497 178.751 276.853 178.809Z" fill="#3F3D56"/>
<path d="M229.375 197.516C229.608 197.295 229.776 197.014 229.859 196.704C229.943 196.394 229.94 196.067 229.851 195.759C229.284 195.54 228.668 195.484 228.072 195.597C227.475 195.71 226.922 195.987 226.475 196.398C226.122 196.756 225.818 197.158 225.57 197.596C224.788 198.876 224.095 200.404 224.549 201.835C224.586 201.99 224.654 202.138 224.748 202.267C224.842 202.396 224.962 202.506 225.099 202.588C225.302 202.67 225.521 202.704 225.74 202.689C226.602 202.688 227.463 202.635 228.319 202.53C228.845 202.465 229.455 202.317 229.659 201.827C229.926 201.182 229.279 200.453 229.468 199.782C229.592 199.482 229.78 199.212 230.018 198.992C230.136 198.881 230.227 198.744 230.284 198.592C230.34 198.44 230.36 198.277 230.343 198.115C230.267 197.8 229.785 197.622 229.612 197.895" fill="#3F3D56"/>
<path d="M233.847 191.707C233.081 191.531 232.291 191.481 231.509 191.56C231.336 191.555 231.165 191.594 231.011 191.673C230.862 191.783 230.754 191.94 230.704 192.119C230.539 192.65 230.579 193.224 230.818 193.726C231.056 194.229 231.474 194.623 231.99 194.83C232.27 194.895 232.539 195.003 232.787 195.151C233.448 195.665 233.027 196.716 233.152 197.545C233.292 198.476 234.192 199.258 234.027 200.185C233.897 200.915 233.118 201.493 233.244 202.224C233.375 202.99 234.345 203.22 235.118 203.281C235.565 203.36 236.027 203.307 236.445 203.129C236.865 202.841 237.163 202.408 237.283 201.913C237.599 200.969 237.732 199.974 237.674 198.98C237.671 198.528 237.558 198.083 237.344 197.685C237.112 197.369 236.854 197.073 236.573 196.8C235.092 195.074 236.651 192.499 233.847 191.707Z" fill="#3F3D56"/>
<path opacity="0.8" d="M428.575 326.922C428.575 326.922 315.157 261.684 266.329 274.045C266.329 274.045 162.848 285.204 150.855 309.754C150.855 309.754 117.96 206.746 105.968 203.312" stroke="#6C63FF" stroke-width="2" stroke-miterlimit="10"/>
<path opacity="0.8" d="M150.855 309.754C169.872 258.937 341.199 202.626 341.199 202.626C316.87 208.806 266.329 274.045 266.329 274.045C266.329 274.045 159.421 196.102 105.968 203.312C105.968 203.312 341.37 211.038 428.575 326.922" stroke="#6C63FF" stroke-width="2" stroke-miterlimit="10"/>
<path d="M105.967 208.291C108.711 208.291 110.936 206.062 110.936 203.312C110.936 200.563 108.711 198.334 105.967 198.334C103.223 198.334 100.999 200.563 100.999 203.312C100.999 206.062 103.223 208.291 105.967 208.291Z" fill="#00C4F2"/>
<path d="M150.855 314.733C153.599 314.733 155.823 312.504 155.823 309.754C155.823 307.004 153.599 304.775 150.855 304.775C148.111 304.775 145.886 307.004 145.886 309.754C145.886 312.504 148.111 314.733 150.855 314.733Z" fill="#00C4F2"/>
<path d="M341.198 207.605C343.942 207.605 346.167 205.375 346.167 202.626C346.167 199.876 343.942 197.647 341.198 197.647C338.454 197.647 336.23 199.876 336.23 202.626C336.23 205.375 338.454 207.605 341.198 207.605Z" fill="#00C4F2"/>
<path d="M428.575 331.901C431.319 331.901 433.543 329.672 433.543 326.922C433.543 324.172 431.319 321.943 428.575 321.943C425.831 321.943 423.606 324.172 423.606 326.922C423.606 329.672 425.831 331.901 428.575 331.901Z" fill="#00C4F2"/>
<path d="M266.329 279.023C269.073 279.023 271.297 276.794 271.297 274.045C271.297 271.295 269.073 269.066 266.329 269.066C263.585 269.066 261.36 271.295 261.36 274.045C261.36 276.794 263.585 279.023 266.329 279.023Z" fill="#00C4F2"/>
</g>
<defs>
<filter id="filter0_f_71_39" x="71" y="551" width="380" height="34" filterUnits="userSpaceOnUse" color-interpolation-filters="sRGB">
<feFlood flood-opacity="0" result="BackgroundImageFix"/>
<feBlend mode="normal" in="SourceGraphic" in2="BackgroundImageFix" result="shape"/>
<feGaussianBlur stdDeviation="2" result="effect1_foregroundBlur_71_39"/>
</filter>
<filter id="filter1_i_71_39" x="0" y="0" width="522" height="526" filterUnits="userSpaceOnUse" color-interpolation-filters="sRGB">
<feFlood flood-opacity="0" result="BackgroundImageFix"/>
<feBlend mode="normal" in="SourceGraphic" in2="BackgroundImageFix" result="shape"/>
<feColorMatrix in="SourceAlpha" type="matrix" values="0 0 0 0 0 0 0 0 0 0 0 0 0 0 0 0 0 0 127 0" result="hardAlpha"/>
<feOffset dy="4"/>
<feGaussianBlur stdDeviation="2"/>
<feComposite in2="hardAlpha" operator="arithmetic" k2="-1" k3="1"/>
<feColorMatrix type="matrix" values="0 0 0 0 0 0 0 0 0 0 0 0 0 0 0 0 0 0 0.25 0"/>
<feBlend mode="normal" in2="shape" result="effect1_innerShadow_71_39"/>
</filter>
<clipPath id="clip0_71_39">
<rect width="488.461" height="363.576" fill="white" transform="translate(17.0961 74.083)"/>
</clipPath>
</defs>
</svg>
